<svg xmlns="http://www.w3.org/2000/svg" width="128" height="128" viewBox="0 0 128 128">
  <defs>
    <linearGradient id="g" x1="0" y1="0" x2="0" y2="1">
      <stop offset="0" stop-color="#34d399"/>
      <stop offset="1" stop-color="#059669"/>
    </linearGradient>
  </defs>
  <!-- Wrapped candy -->
  <path d="M40 46c0-10 8-18 18-18h12c10 0 18 8 18 18v36c0 10-8 18-18 18H58c-10 0-18-8-18-18V46z" fill="url(#g)"/>
  <path d="M40 54l48 20M40 74l48-20" stroke="#ffffff" stroke-opacity="0.55" stroke-width="8" stroke-linecap="round"/>
  <path d="M30 64c-10 10-10 20 0 30 14-2 20-10 18-24-2-14-8-20-18-6z" fill="#10b981" opacity="0.95"/>
  <path d="M98 64c10 10 10 20 0 30-14-2-20-10-18-24 2-14 8-20 18-6z" fill="#10b981" opacity="0.95"/>
</svg>
