<svg xmlns="http://www.w3.org/2000/svg" width="128" height="128" viewBox="0 0 128 128">
  <defs>
    <radialGradient id="c4" cx="40%" cy="28%" r="75%">
      <stop offset="0" stop-color="#f5d0fe"/>
      <stop offset="1" stop-color="#a855f7"/>
    </radialGradient>
  </defs>

  <!-- Gummy bear-ish candy (glossy, outlined) -->
  <g>
    <path d="M44 30c0-8 6-14 14-14h2c8 0 14 6 14 14v4c6-2 14 4 14 12v40c0 16-14 28-30 28S34 102 34 86V46c0-8 8-14 14-12v-4z" fill="#000" opacity="0.14" transform="translate(2 3)"/>
    <path d="M44 30c0-8 6-14 14-14h2c8 0 14 6 14 14v4c6-2 14 4 14 12v40c0 16-14 28-30 28S34 102 34 86V46c0-8 8-14 14-12v-4z" fill="url(#c4)"/>
    <path d="M44 30c0-8 6-14 14-14h2c8 0 14 6 14 14v4c6-2 14 4 14 12v40c0 16-14 28-30 28S34 102 34 86V46c0-8 8-14 14-12v-4z" fill="none" stroke="#0b1220" stroke-opacity="0.22" stroke-width="4"/>

    <path d="M44 44c10-12 32-12 44 0" fill="none" stroke="#fff" stroke-opacity="0.42" stroke-width="11" stroke-linecap="round"/>
    <path d="M48 60c7 7 18 8 26 4" fill="none" stroke="#fff" stroke-opacity="0.18" stroke-width="8" stroke-linecap="round"/>

    <circle cx="54" cy="54" r="6" fill="#0f172a" opacity="0.75"/>
    <circle cx="74" cy="54" r="6" fill="#0f172a" opacity="0.75"/>
    <path d="M54 76c8 10 12 10 20 0" fill="none" stroke="#0f172a" stroke-opacity="0.5" stroke-width="8" stroke-linecap="round"/>
  </g>
</svg>
